<svg xmlns="http://www.w3.org/2000/svg" xmlns:xlink="http://www.w3.org/1999/xlink" width="31" zoomAndPan="magnify" viewBox="0 0 23.25 22.5" height="30" preserveAspectRatio="xMidYMid meet" version="1.0"><defs><clipPath id="e0153ef048"><path d="M 0 0.109375 L 22 0.109375 L 22 21.90625 L 0 21.90625 Z M 0 0.109375 " clip-rule="nonzero"/></clipPath></defs><g clip-path="url(#e0153ef048)"><path fill="#5b5b5b" d="M 2.054688 10.066406 C 1.789062 10.289062 1.488281 10.597656 1.132812 10.65625 C 0.65625 10.730469 0.183594 10.355469 0.113281 9.886719 C 0 9.15625 0.925781 8.609375 1.445312 8.164062 L 9.738281 0.984375 C 10.058594 0.710938 10.480469 0.242188 10.914062 0.183594 C 11.515625 0.117188 12.152344 0.851562 12.578125 1.226562 L 20.769531 8.3125 C 21.074219 8.574219 21.410156 8.832031 21.6875 9.121094 C 22.207031 9.675781 21.851562 10.605469 21.074219 10.65625 C 20.613281 10.6875 20.277344 10.320312 19.957031 10.042969 C 19.933594 10.953125 19.949219 11.867188 19.949219 12.78125 L 19.949219 19.738281 C 19.949219 21.320312 19.945312 21.589844 18.390625 21.589844 L 12.824219 21.589844 C 12.800781 20.992188 12.8125 20.390625 12.8125 19.789062 L 12.8125 15.859375 C 12.8125 15.59375 12.816406 15.324219 12.792969 15.058594 C 12.226562 15.019531 11.628906 15.046875 11.058594 15.046875 C 10.445312 15.046875 9.835938 15.042969 9.222656 15.050781 C 9.195312 15.644531 9.210938 16.238281 9.210938 16.832031 L 9.210938 19.84375 C 9.210938 20.421875 9.230469 21.003906 9.191406 21.582031 C 8.691406 21.605469 8.183594 21.589844 7.683594 21.589844 L 3.570312 21.589844 C 3.347656 21.589844 3.105469 21.613281 2.886719 21.578125 C 1.886719 21.425781 2.0625 20.269531 2.0625 19.53125 L 2.0625 12.761719 C 2.0625 11.863281 2.074219 10.964844 2.054688 10.066406 Z M 11.015625 2.375 C 10.515625 2.757812 9.972656 3.25 9.496094 3.664062 L 7.34375 5.527344 C 6.257812 6.464844 4.960938 7.488281 3.953125 8.472656 C 3.914062 8.921875 3.933594 9.378906 3.933594 9.828125 L 3.933594 19.710938 C 5.003906 19.726562 6.296875 19.773438 7.359375 19.703125 L 7.363281 14.734375 C 7.363281 13.058594 7.890625 13.175781 9.25 13.175781 L 12.792969 13.175781 C 13.648438 13.175781 14.65625 13.070312 14.65625 14.25 L 14.648438 19.714844 L 18.082031 19.714844 L 18.078125 9.792969 C 18.078125 9.339844 18.085938 8.890625 18.074219 8.441406 C 17.277344 7.773438 16.5 7.09375 15.71875 6.417969 L 11.671875 2.921875 C 11.457031 2.742188 11.246094 2.535156 11.015625 2.375 Z M 11.015625 2.375 " fill-opacity="1" fill-rule="nonzero"/></g></svg>