<svg xmlns="http://www.w3.org/2000/svg" xmlns:xlink="http://www.w3.org/1999/xlink" width="33" zoomAndPan="magnify" viewBox="0 0 24.75 24.749999" height="33" preserveAspectRatio="xMidYMid meet" version="1.0"><defs><clipPath id="21d29c5a53"><path d="M 11 19 L 13 19 L 13 23.761719 L 11 23.761719 Z M 11 19 " clip-rule="nonzero"/></clipPath><clipPath id="5d3bd6d218"><path d="M 19 11 L 23.761719 11 L 23.761719 13 L 19 13 Z M 19 11 " clip-rule="nonzero"/></clipPath></defs><path fill="#2a8eff" d="M 12.015625 18.367188 C 8.5 18.367188 5.640625 15.503906 5.640625 11.988281 C 5.640625 8.476562 8.5 5.613281 12.015625 5.613281 C 15.53125 5.613281 18.390625 8.476562 18.390625 11.988281 C 18.390625 15.503906 15.53125 18.367188 12.015625 18.367188 Z M 12.015625 7.378906 C 9.472656 7.378906 7.40625 9.449219 7.40625 11.988281 C 7.40625 14.53125 9.472656 16.601562 12.015625 16.601562 C 14.554688 16.601562 16.625 14.53125 16.625 11.988281 C 16.625 9.449219 14.554688 7.378906 12.015625 7.378906 Z M 12.015625 7.378906 " fill-opacity="1" fill-rule="nonzero"/><g clip-path="url(#21d29c5a53)"><path fill="#2a8eff" d="M 11.988281 23.980469 C 11.503906 23.980469 11.109375 23.585938 11.109375 23.097656 L 11.109375 20.546875 C 11.109375 20.058594 11.503906 19.664062 11.988281 19.664062 C 12.476562 19.664062 12.871094 20.058594 12.871094 20.546875 L 12.871094 23.097656 C 12.871094 23.585938 12.476562 23.980469 11.988281 23.980469 Z M 11.988281 23.980469 " fill-opacity="1" fill-rule="nonzero"/></g><path fill="#2a8eff" d="M 11.988281 4.316406 C 11.503906 4.316406 11.109375 3.921875 11.109375 3.433594 L 11.109375 0.882812 C 11.109375 0.394531 11.503906 0 11.988281 0 C 12.476562 0 12.871094 0.394531 12.871094 0.882812 L 12.871094 3.433594 C 12.871094 3.921875 12.476562 4.316406 11.988281 4.316406 Z M 11.988281 4.316406 " fill-opacity="1" fill-rule="nonzero"/><path fill="#2a8eff" d="M 4.136719 20.726562 C 3.910156 20.726562 3.683594 20.640625 3.511719 20.46875 C 3.167969 20.125 3.167969 19.566406 3.511719 19.21875 L 5.316406 17.417969 C 5.660156 17.070312 6.21875 17.070312 6.5625 17.417969 C 6.90625 17.761719 6.90625 18.320312 6.5625 18.664062 L 4.761719 20.46875 C 4.585938 20.640625 4.363281 20.726562 4.136719 20.726562 Z M 4.136719 20.726562 " fill-opacity="1" fill-rule="nonzero"/><path fill="#2a8eff" d="M 18.042969 6.820312 C 17.816406 6.820312 17.589844 6.734375 17.417969 6.5625 C 17.074219 6.21875 17.074219 5.660156 17.417969 5.316406 L 19.21875 3.511719 C 19.566406 3.167969 20.125 3.167969 20.46875 3.511719 C 20.8125 3.855469 20.8125 4.414062 20.46875 4.761719 L 18.664062 6.5625 C 18.492188 6.734375 18.265625 6.820312 18.042969 6.820312 Z M 18.042969 6.820312 " fill-opacity="1" fill-rule="nonzero"/><path fill="#2a8eff" d="M 3.433594 12.871094 L 0.882812 12.871094 C 0.394531 12.871094 0 12.476562 0 11.988281 C 0 11.503906 0.394531 11.109375 0.882812 11.109375 L 3.433594 11.109375 C 3.921875 11.109375 4.316406 11.503906 4.316406 11.988281 C 4.316406 12.476562 3.921875 12.871094 3.433594 12.871094 Z M 3.433594 12.871094 " fill-opacity="1" fill-rule="nonzero"/><g clip-path="url(#5d3bd6d218)"><path fill="#2a8eff" d="M 23.097656 12.871094 L 20.546875 12.871094 C 20.058594 12.871094 19.664062 12.476562 19.664062 11.988281 C 19.664062 11.503906 20.058594 11.109375 20.546875 11.109375 L 23.097656 11.109375 C 23.585938 11.109375 23.980469 11.503906 23.980469 11.988281 C 23.980469 12.476562 23.585938 12.871094 23.097656 12.871094 Z M 23.097656 12.871094 " fill-opacity="1" fill-rule="nonzero"/></g><path fill="#2a8eff" d="M 5.9375 6.820312 C 5.714844 6.820312 5.488281 6.734375 5.316406 6.5625 L 3.511719 4.761719 C 3.167969 4.414062 3.167969 3.855469 3.511719 3.511719 C 3.855469 3.167969 4.414062 3.167969 4.761719 3.511719 L 6.5625 5.316406 C 6.90625 5.660156 6.90625 6.21875 6.5625 6.5625 C 6.390625 6.734375 6.164062 6.820312 5.9375 6.820312 Z M 5.9375 6.820312 " fill-opacity="1" fill-rule="nonzero"/><path fill="#2a8eff" d="M 19.84375 20.726562 C 19.617188 20.726562 19.394531 20.640625 19.21875 20.46875 L 17.417969 18.664062 C 17.074219 18.320312 17.074219 17.761719 17.417969 17.417969 C 17.761719 17.070312 18.320312 17.070312 18.664062 17.417969 L 20.46875 19.21875 C 20.8125 19.566406 20.8125 20.125 20.46875 20.46875 C 20.296875 20.640625 20.070312 20.726562 19.84375 20.726562 Z M 19.84375 20.726562 " fill-opacity="1" fill-rule="nonzero"/></svg>