<svg xmlns="http://www.w3.org/2000/svg" xmlns:xlink="http://www.w3.org/1999/xlink" width="14" zoomAndPan="magnify" viewBox="0 0 10.5 17.999999" height="24" preserveAspectRatio="xMidYMid meet" version="1.0"><defs><clipPath id="a16bd59fc5"><path d="M 0 4 L 10.023438 4 L 10.023438 17.589844 L 0 17.589844 Z M 0 4 " clip-rule="nonzero"/></clipPath><clipPath id="7acb711785"><path d="M 0 0.410156 L 9.308594 0.410156 L 9.308594 16.875 L 0 16.875 Z M 0 0.410156 " clip-rule="nonzero"/></clipPath><clipPath id="6eecd23f3b"><path d="M 0.886719 7.355469 L 3.488281 7.355469 L 3.488281 8.65625 L 0.886719 8.65625 Z M 0.886719 7.355469 " clip-rule="nonzero"/></clipPath><clipPath id="67180a1fee"><path d="M 2.839844 7.355469 L 0.886719 7.355469 L 0.886719 8.65625 L 2.839844 8.65625 L 3.488281 8.003906 Z M 2.839844 7.355469 " clip-rule="nonzero"/></clipPath><clipPath id="506b41b078"><path d="M 0.886719 0.355469 L 3.488281 0.355469 L 3.488281 1.65625 L 0.886719 1.65625 Z M 0.886719 0.355469 " clip-rule="nonzero"/></clipPath><clipPath id="533ea6463d"><path d="M 2.839844 0.355469 L 0.886719 0.355469 L 0.886719 1.65625 L 2.839844 1.65625 L 3.488281 1.003906 Z M 2.839844 0.355469 " clip-rule="nonzero"/></clipPath><clipPath id="3210469d47"><rect x="0" width="4" y="0" height="2"/></clipPath></defs><g clip-path="url(#a16bd59fc5)"><path stroke-linecap="butt" transform="matrix(0.506224, 0.506224, -0.506224, 0.506224, 2.122247, 8.402326)" fill="none" stroke-linejoin="miter" d="M -0.00112165 0.502725 L 10.30033 0.502725 " stroke="#ffffff" stroke-width="1" stroke-opacity="1" stroke-miterlimit="4"/></g><g clip-path="url(#7acb711785)"><path fill="#ffffff" d="M 3.804688 8.582031 L 9.132812 3.257812 C 9.710938 2.679688 9.710938 1.742188 9.132812 1.164062 C 8.554688 0.585938 7.617188 0.585938 7.039062 1.164062 L 0.609375 7.597656 C 0.0625 8.144531 0.0625 9.027344 0.609375 9.570312 L 7.039062 16.003906 C 7.617188 16.578125 8.554688 16.578125 9.132812 16.003906 C 9.710938 15.425781 9.710938 14.488281 9.132812 13.910156 Z M 3.804688 8.582031 " fill-opacity="1" fill-rule="nonzero"/></g><g clip-path="url(#6eecd23f3b)"><g clip-path="url(#67180a1fee)"><g transform="matrix(1, 0, 0, 1, 0, 7)"><g clip-path="url(#3210469d47)"><g clip-path="url(#506b41b078)"><g clip-path="url(#533ea6463d)"><path fill="#ffffff" d="M 0.886719 0.355469 L 3.488281 0.355469 L 3.488281 1.65625 L 0.886719 1.65625 Z M 0.886719 0.355469 " fill-opacity="1" fill-rule="nonzero"/></g></g></g></g></g></g></svg>