<svg xmlns="http://www.w3.org/2000/svg" xmlns:xlink="http://www.w3.org/1999/xlink" width="210" zoomAndPan="magnify" viewBox="0 0 157.5 104.249996" height="139" preserveAspectRatio="xMidYMid meet" version="1.0"><defs><clipPath id="82ba16defe"><path d="M 98.21875 21.027344 L 114.246094 21.027344 L 114.246094 29.042969 L 98.21875 29.042969 Z M 98.21875 21.027344 " clip-rule="nonzero"/></clipPath><clipPath id="1308bdf082"><path d="M 110.238281 21.027344 L 98.21875 21.027344 L 98.21875 29.042969 L 110.238281 29.042969 L 114.246094 25.035156 Z M 110.238281 21.027344 " clip-rule="nonzero"/></clipPath><clipPath id="7f049e014a"><path d="M 0.21875 0.0273438 L 16.246094 0.0273438 L 16.246094 8.042969 L 0.21875 8.042969 Z M 0.21875 0.0273438 " clip-rule="nonzero"/></clipPath><clipPath id="e06ea8ec85"><path d="M 12.238281 0.0273438 L 0.21875 0.0273438 L 0.21875 8.042969 L 12.238281 8.042969 L 16.246094 4.035156 Z M 12.238281 0.0273438 " clip-rule="nonzero"/></clipPath><clipPath id="f0a73d38e1"><rect x="0" width="17" y="0" height="9"/></clipPath><clipPath id="5afd2cf5d2"><path d="M 78.492188 38.042969 L 117.902344 38.042969 L 117.902344 46.914062 L 78.492188 46.914062 Z M 78.492188 38.042969 " clip-rule="nonzero"/></clipPath><clipPath id="3e0b9a0357"><path d="M 0.492188 0.0429688 L 39.902344 0.0429688 L 39.902344 8.914062 L 0.492188 8.914062 Z M 0.492188 0.0429688 " clip-rule="nonzero"/></clipPath><clipPath id="f992fc18ab"><rect x="0" width="40" y="0" height="9"/></clipPath><clipPath id="9be1800035"><path d="M 0.3125 0 L 156.6875 0 L 156.6875 103.503906 L 0.3125 103.503906 Z M 0.3125 0 " clip-rule="nonzero"/></clipPath></defs><g clip-path="url(#82ba16defe)"><g clip-path="url(#1308bdf082)"><g transform="matrix(1, 0, 0, 1, 98, 21)"><g clip-path="url(#f0a73d38e1)"><g clip-path="url(#7f049e014a)"><g clip-path="url(#e06ea8ec85)"><path fill="#3cbf69" d="M 0.21875 0.0273438 L 16.246094 0.0273438 L 16.246094 8.042969 L 0.21875 8.042969 Z M 0.21875 0.0273438 " fill-opacity="1" fill-rule="nonzero"/></g></g></g></g></g></g><g clip-path="url(#5afd2cf5d2)"><g transform="matrix(1, 0, 0, 1, 78, 38)"><g clip-path="url(#f992fc18ab)"><g clip-path="url(#3e0b9a0357)"><path fill="#3cbf69" d="M 0.492188 0.0429688 L 39.886719 0.0429688 L 39.886719 8.914062 L 0.492188 8.914062 Z M 0.492188 0.0429688 " fill-opacity="1" fill-rule="nonzero"/></g></g></g></g><g clip-path="url(#9be1800035)"><path fill="#fffff6" d="M 21.539062 50.347656 C 15.441406 51.625 10.089844 55.007812 6.28125 59.691406 C 2.554688 64.277344 0.3125 70.125 0.3125 76.472656 C 0.3125 83.808594 3.316406 90.476562 8.152344 95.3125 C 12.988281 100.148438 19.660156 103.148438 26.992188 103.148438 L 129.984375 103.148438 C 137.316406 103.148438 143.988281 100.148438 148.824219 95.3125 C 153.660156 90.476562 156.660156 83.804688 156.660156 76.472656 C 156.660156 71.585938 155.339844 67.007812 153.042969 63.078125 C 150.648438 58.992188 147.195312 55.582031 143.070312 53.242188 C 142.105469 52.695312 141.542969 51.574219 141.753906 50.417969 C 141.992188 49.125 142.175781 47.820312 142.296875 46.523438 C 142.410156 45.300781 142.464844 43.988281 142.464844 42.589844 C 142.464844 30.84375 137.703125 20.210938 130.007812 12.515625 C 122.320312 4.820312 111.683594 0.0585938 99.941406 0.0585938 C 91.300781 0.0585938 83.269531 2.621094 76.578125 7.03125 C 69.671875 11.578125 64.167969 18.097656 60.859375 25.796875 C 60.277344 27.136719 58.734375 27.78125 57.375 27.226562 C 55.925781 26.636719 54.40625 26.179688 52.839844 25.875 C 51.324219 25.578125 49.742188 25.421875 48.113281 25.421875 C 41.703125 25.421875 35.863281 27.882812 31.503906 31.902344 C 27.101562 35.957031 24.1875 41.609375 23.679688 47.933594 C 23.578125 49.089844 22.734375 50.101562 21.539062 50.347656 Z M 21.539062 50.347656 " fill-opacity="1" fill-rule="evenodd"/></g></svg>