<svg xmlns="http://www.w3.org/2000/svg" xmlns:xlink="http://www.w3.org/1999/xlink" width="28" zoomAndPan="magnify" viewBox="0 0 21 23.25" height="31" preserveAspectRatio="xMidYMid meet" version="1.0"><defs><clipPath id="38e0dbf43c"><path d="M 0.328125 2 L 19 2 L 19 22 L 0.328125 22 Z M 0.328125 2 " clip-rule="nonzero"/></clipPath><clipPath id="d5b1d2565f"><path d="M 12 14 L 20.671875 14 L 20.671875 22.523438 L 12 22.523438 Z M 12 14 " clip-rule="nonzero"/></clipPath></defs><path fill="#292929" d="M 6.113281 12.859375 L 3.429688 12.859375 L 3.429688 10.179688 L 6.113281 10.179688 L 6.113281 12.859375 " fill-opacity="1" fill-rule="nonzero"/><path fill="#292929" d="M 15.636719 12.859375 L 12.953125 12.859375 L 12.953125 10.179688 L 15.636719 10.179688 L 15.636719 12.859375 " fill-opacity="1" fill-rule="nonzero"/><path fill="#292929" d="M 10.875 12.859375 L 8.191406 12.859375 L 8.191406 10.179688 L 10.875 10.179688 L 10.875 12.859375 " fill-opacity="1" fill-rule="nonzero"/><path fill="#292929" d="M 6.113281 17.800781 L 3.429688 17.800781 L 3.429688 15.121094 L 6.113281 15.121094 L 6.113281 17.800781 " fill-opacity="1" fill-rule="nonzero"/><path fill="#292929" d="M 10.875 17.800781 L 8.191406 17.800781 L 8.191406 15.121094 L 10.875 15.121094 L 10.875 17.800781 " fill-opacity="1" fill-rule="nonzero"/><path fill="#292929" d="M 14.574219 5.964844 C 13.886719 5.964844 13.328125 5.40625 13.328125 4.714844 C 13.328125 4.027344 13.886719 3.46875 14.574219 3.46875 C 15.265625 3.46875 15.824219 4.027344 15.824219 4.714844 C 15.824219 5.40625 15.265625 5.964844 14.574219 5.964844 Z M 9.558594 5.964844 C 8.867188 5.964844 8.308594 5.40625 8.308594 4.714844 C 8.308594 4.027344 8.867188 3.46875 9.558594 3.46875 C 10.246094 3.46875 10.804688 4.027344 10.804688 4.714844 C 10.804688 5.40625 10.246094 5.964844 9.558594 5.964844 Z M 4.492188 5.964844 C 3.800781 5.964844 3.242188 5.40625 3.242188 4.714844 C 3.242188 4.027344 3.800781 3.46875 4.492188 3.46875 C 5.179688 3.46875 5.738281 4.027344 5.738281 4.714844 C 5.738281 5.40625 5.179688 5.964844 4.492188 5.964844 Z M 1.011719 2.921875 L 1.011719 8.554688 L 18.105469 8.554688 L 18.105469 2.921875 L 1.011719 2.921875 " fill-opacity="1" fill-rule="nonzero"/><path fill="#292929" d="M 4.492188 5.054688 C 4.054688 5.054688 3.703125 4.703125 3.703125 4.265625 L 3.703125 0.785156 C 3.703125 0.347656 4.054688 -0.00390625 4.492188 -0.00390625 C 4.925781 -0.00390625 5.28125 0.347656 5.28125 0.785156 L 5.28125 4.265625 C 5.28125 4.703125 4.925781 5.054688 4.492188 5.054688 " fill-opacity="1" fill-rule="nonzero"/><path fill="#292929" d="M 14.574219 5.054688 C 14.140625 5.054688 13.785156 4.703125 13.785156 4.265625 L 13.785156 0.785156 C 13.785156 0.347656 14.140625 -0.00390625 14.574219 -0.00390625 C 15.011719 -0.00390625 15.363281 0.347656 15.363281 0.785156 L 15.363281 4.265625 C 15.363281 4.703125 15.011719 5.054688 14.574219 5.054688 " fill-opacity="1" fill-rule="nonzero"/><path fill="#292929" d="M 9.53125 5.054688 C 9.097656 5.054688 8.746094 4.703125 8.746094 4.265625 L 8.746094 0.785156 C 8.746094 0.347656 9.097656 -0.00390625 9.53125 -0.00390625 C 9.96875 -0.00390625 10.320312 0.347656 10.320312 0.785156 L 10.320312 4.265625 C 10.320312 4.703125 9.96875 5.054688 9.53125 5.054688 " fill-opacity="1" fill-rule="nonzero"/><g clip-path="url(#38e0dbf43c)"><path fill="#292929" d="M 13.28125 20.386719 L 1.523438 20.386719 C 1.453125 20.386719 1.398438 20.332031 1.398438 20.265625 L 1.398438 3.316406 C 1.398438 3.25 1.453125 3.195312 1.523438 3.195312 L 17.542969 3.195312 C 17.613281 3.195312 17.667969 3.25 17.667969 3.316406 L 17.667969 14.832031 C 18.054688 14.992188 18.410156 15.214844 18.71875 15.488281 L 18.71875 3.316406 C 18.71875 2.667969 18.191406 2.144531 17.542969 2.144531 L 1.523438 2.144531 C 0.875 2.144531 0.347656 2.667969 0.347656 3.316406 L 0.347656 20.265625 C 0.347656 20.914062 0.875 21.4375 1.523438 21.4375 L 14.449219 21.4375 C 13.988281 21.175781 13.589844 20.816406 13.28125 20.386719 " fill-opacity="1" fill-rule="nonzero"/></g><g clip-path="url(#d5b1d2565f)"><path fill="#292929" d="M 16.269531 15.082031 C 14.53125 15.082031 13.113281 16.5 13.113281 18.242188 C 13.113281 19.980469 14.53125 21.398438 16.269531 21.398438 C 18.011719 21.398438 19.429688 19.980469 19.429688 18.242188 C 19.429688 16.5 18.011719 15.082031 16.269531 15.082031 Z M 16.269531 22.449219 C 13.949219 22.449219 12.0625 20.5625 12.0625 18.242188 C 12.0625 15.921875 13.949219 14.03125 16.269531 14.03125 C 18.589844 14.03125 20.480469 15.921875 20.480469 18.242188 C 20.480469 20.5625 18.589844 22.449219 16.269531 22.449219 " fill-opacity="1" fill-rule="nonzero"/></g><path fill="#292929" d="M 18.105469 19.457031 C 18.0625 19.457031 18.023438 19.449219 17.984375 19.429688 L 16.148438 18.472656 C 16.0625 18.429688 16.007812 18.339844 16.007812 18.242188 L 16.007812 16.398438 C 16.007812 16.253906 16.125 16.136719 16.269531 16.136719 C 16.417969 16.136719 16.535156 16.253906 16.535156 16.398438 L 16.535156 18.082031 L 18.226562 18.960938 C 18.355469 19.027344 18.40625 19.1875 18.339844 19.316406 C 18.292969 19.40625 18.199219 19.457031 18.105469 19.457031 " fill-opacity="1" fill-rule="nonzero"/></svg>