<svg xmlns="http://www.w3.org/2000/svg" xmlns:xlink="http://www.w3.org/1999/xlink" width="37" zoomAndPan="magnify" viewBox="0 0 27.75 28.499999" height="38" preserveAspectRatio="xMidYMid meet" version="1.0"><defs><clipPath id="fa2dd0b6f7"><path d="M 0.117188 0 L 26.652344 0 L 26.652344 28 L 0.117188 28 Z M 0.117188 0 " clip-rule="nonzero"/></clipPath><clipPath id="2f3957cb85"><path d="M 8 18 L 26.652344 18 L 26.652344 23 L 8 23 Z M 8 18 " clip-rule="nonzero"/></clipPath><clipPath id="aa5f143c81"><path d="M 18 1 L 26.652344 1 L 26.652344 13 L 18 13 Z M 18 1 " clip-rule="nonzero"/></clipPath></defs><g clip-path="url(#fa2dd0b6f7)"><path fill="#ffffff" d="M 26.023438 16.332031 C 25.429688 16.335938 24.925781 16.125 24.511719 15.699219 C 24.140625 15.359375 23.722656 15.097656 23.253906 14.917969 C 22.785156 14.734375 22.300781 14.644531 21.800781 14.644531 C 21.296875 14.644531 20.8125 14.734375 20.34375 14.917969 C 19.878906 15.097656 19.457031 15.359375 19.089844 15.699219 L 19.050781 15.730469 C 17.640625 10.253906 10.785156 1.039062 10.480469 0.632812 C 10.386719 0.519531 10.269531 0.429688 10.136719 0.367188 C 10.003906 0.300781 9.859375 0.269531 9.710938 0.269531 C 9.5625 0.269531 9.421875 0.300781 9.289062 0.367188 C 9.152344 0.429688 9.039062 0.519531 8.945312 0.632812 C 8.039062 1.84375 0.117188 12.574219 0.117188 17.523438 C 0.117188 18.390625 0.230469 19.246094 0.464844 20.082031 C 0.695312 20.917969 1.035156 21.710938 1.480469 22.457031 C 1.929688 23.203125 2.464844 23.875 3.09375 24.472656 C 3.726562 25.070312 4.421875 25.578125 5.1875 25.984375 C 5.957031 26.394531 6.761719 26.695312 7.609375 26.886719 C 8.457031 27.078125 9.316406 27.148438 10.183594 27.109375 C 11.050781 27.066406 11.898438 26.90625 12.722656 26.632812 C 13.546875 26.363281 14.320312 25.984375 15.042969 25.5 C 15.265625 25.355469 15.402344 25.148438 15.453125 24.890625 C 15.503906 24.628906 15.457031 24.390625 15.308594 24.167969 C 15.160156 23.949219 14.957031 23.8125 14.695312 23.761719 C 14.4375 23.710938 14.195312 23.757812 13.976562 23.90625 C 13.398438 24.292969 12.78125 24.59375 12.121094 24.8125 C 11.460938 25.03125 10.78125 25.15625 10.089844 25.191406 C 9.394531 25.222656 8.707031 25.164062 8.03125 25.011719 C 7.351562 24.859375 6.707031 24.621094 6.09375 24.292969 C 5.480469 23.964844 4.921875 23.5625 4.417969 23.082031 C 3.914062 22.601562 3.484375 22.066406 3.128906 21.46875 C 2.769531 20.871094 2.5 20.238281 2.3125 19.570312 C 2.128906 18.898438 2.035156 18.21875 2.035156 17.523438 C 2.035156 14.222656 7.019531 6.59375 9.710938 2.839844 C 11.574219 5.445312 16.238281 12.261719 17.210938 16.296875 C 16.769531 16.210938 16.390625 16.011719 16.066406 15.699219 C 15.695312 15.359375 15.277344 15.101562 14.8125 14.917969 C 14.34375 14.738281 13.859375 14.644531 13.355469 14.644531 C 12.855469 14.644531 12.371094 14.738281 11.902344 14.917969 C 11.433594 15.101562 11.015625 15.359375 10.648438 15.699219 C 10.234375 16.125 9.730469 16.335938 9.136719 16.332031 C 8.871094 16.332031 8.644531 16.425781 8.457031 16.613281 C 8.273438 16.800781 8.179688 17.027344 8.179688 17.292969 C 8.179688 17.558594 8.273438 17.785156 8.457031 17.972656 C 8.644531 18.160156 8.871094 18.253906 9.136719 18.253906 C 10.179688 18.261719 11.085938 17.910156 11.847656 17.195312 C 12.046875 16.996094 12.277344 16.839844 12.539062 16.726562 C 12.800781 16.617188 13.074219 16.5625 13.355469 16.5625 C 13.640625 16.5625 13.914062 16.617188 14.175781 16.726562 C 14.4375 16.839844 14.667969 16.996094 14.867188 17.195312 C 15.238281 17.535156 15.65625 17.796875 16.125 17.976562 C 16.589844 18.160156 17.078125 18.25 17.578125 18.25 C 18.078125 18.25 18.566406 18.160156 19.03125 17.976562 C 19.5 17.796875 19.917969 17.535156 20.289062 17.195312 C 20.488281 16.992188 20.71875 16.835938 20.980469 16.726562 C 21.246094 16.617188 21.519531 16.5625 21.800781 16.5625 C 22.085938 16.5625 22.359375 16.617188 22.625 16.726562 C 22.886719 16.835938 23.117188 16.992188 23.316406 17.195312 C 24.078125 17.910156 24.980469 18.261719 26.023438 18.25 C 26.289062 18.25 26.515625 18.15625 26.703125 17.96875 C 26.890625 17.78125 26.984375 17.558594 26.984375 17.292969 C 26.984375 17.027344 26.890625 16.800781 26.703125 16.613281 C 26.515625 16.425781 26.289062 16.332031 26.023438 16.332031 Z M 26.023438 16.332031 " fill-opacity="1" fill-rule="nonzero"/></g><g clip-path="url(#2f3957cb85)"><path fill="#ffffff" d="M 26.023438 20.285156 C 25.429688 20.289062 24.925781 20.078125 24.511719 19.652344 C 24.140625 19.3125 23.722656 19.050781 23.253906 18.871094 C 22.785156 18.6875 22.300781 18.597656 21.800781 18.597656 C 21.296875 18.597656 20.8125 18.6875 20.34375 18.871094 C 19.878906 19.050781 19.457031 19.3125 19.089844 19.652344 C 18.890625 19.855469 18.660156 20.011719 18.394531 20.121094 C 18.132812 20.230469 17.859375 20.285156 17.574219 20.285156 C 17.292969 20.285156 17.019531 20.230469 16.757812 20.121094 C 16.492188 20.011719 16.261719 19.855469 16.0625 19.652344 C 15.695312 19.3125 15.273438 19.050781 14.808594 18.871094 C 14.339844 18.6875 13.855469 18.597656 13.355469 18.597656 C 12.851562 18.597656 12.367188 18.6875 11.898438 18.871094 C 11.433594 19.050781 11.015625 19.3125 10.644531 19.652344 C 10.230469 20.078125 9.726562 20.289062 9.132812 20.285156 C 8.871094 20.285156 8.644531 20.378906 8.457031 20.566406 C 8.269531 20.753906 8.175781 20.980469 8.175781 21.246094 C 8.175781 21.507812 8.269531 21.734375 8.457031 21.921875 C 8.644531 22.109375 8.871094 22.203125 9.132812 22.203125 C 10.179688 22.214844 11.082031 21.863281 11.84375 21.148438 C 12.042969 20.945312 12.273438 20.789062 12.535156 20.679688 C 12.796875 20.570312 13.070312 20.515625 13.355469 20.515625 C 13.636719 20.515625 13.910156 20.570312 14.171875 20.679688 C 14.433594 20.789062 14.664062 20.945312 14.863281 21.148438 C 15.234375 21.488281 15.652344 21.746094 16.121094 21.929688 C 16.589844 22.113281 17.074219 22.203125 17.574219 22.203125 C 18.078125 22.203125 18.5625 22.113281 19.03125 21.929688 C 19.496094 21.746094 19.914062 21.488281 20.285156 21.148438 C 20.484375 20.945312 20.714844 20.789062 20.980469 20.679688 C 21.242188 20.570312 21.515625 20.515625 21.800781 20.515625 C 22.085938 20.515625 22.359375 20.570312 22.621094 20.679688 C 22.882812 20.789062 23.113281 20.945312 23.3125 21.148438 C 24.078125 21.863281 24.980469 22.214844 26.023438 22.203125 C 26.289062 22.203125 26.515625 22.109375 26.703125 21.925781 C 26.890625 21.738281 26.984375 21.511719 26.984375 21.246094 C 26.984375 20.980469 26.890625 20.753906 26.703125 20.566406 C 26.515625 20.378906 26.289062 20.285156 26.023438 20.285156 Z M 26.023438 20.285156 " fill-opacity="1" fill-rule="nonzero"/></g><g clip-path="url(#aa5f143c81)"><path fill="#ffffff" d="M 22.667969 12.722656 C 22.949219 12.722656 23.230469 12.695312 23.507812 12.640625 C 23.789062 12.585938 24.058594 12.503906 24.320312 12.394531 C 24.582031 12.285156 24.828125 12.152344 25.066406 11.996094 C 25.300781 11.839844 25.519531 11.660156 25.71875 11.460938 C 25.921875 11.257812 26.097656 11.039062 26.257812 10.804688 C 26.414062 10.570312 26.546875 10.320312 26.65625 10.058594 C 26.765625 9.796875 26.847656 9.527344 26.902344 9.25 C 26.957031 8.96875 26.984375 8.691406 26.984375 8.40625 C 26.984375 6.332031 24.023438 2.359375 23.429688 1.585938 C 23.335938 1.472656 23.21875 1.386719 23.085938 1.324219 C 22.953125 1.261719 22.8125 1.230469 22.667969 1.230469 C 22.519531 1.230469 22.378906 1.261719 22.246094 1.324219 C 22.113281 1.386719 22 1.472656 21.90625 1.585938 C 21.3125 2.359375 18.347656 6.332031 18.347656 8.40625 C 18.347656 8.691406 18.375 8.96875 18.429688 9.25 C 18.488281 9.527344 18.570312 9.796875 18.675781 10.058594 C 18.785156 10.320312 18.917969 10.570312 19.078125 10.804688 C 19.234375 11.039062 19.414062 11.257812 19.613281 11.460938 C 19.8125 11.660156 20.03125 11.839844 20.269531 11.996094 C 20.503906 12.152344 20.753906 12.285156 21.015625 12.394531 C 21.277344 12.503906 21.546875 12.585938 21.824219 12.640625 C 22.101562 12.695312 22.382812 12.722656 22.667969 12.722656 Z M 22.667969 3.800781 C 23.832031 5.464844 25.066406 7.542969 25.066406 8.40625 C 25.066406 8.722656 25.003906 9.03125 24.882812 9.324219 C 24.761719 9.617188 24.589844 9.878906 24.363281 10.101562 C 24.136719 10.328125 23.878906 10.5 23.585938 10.621094 C 23.289062 10.746094 22.984375 10.804688 22.667969 10.804688 C 22.347656 10.804688 22.042969 10.746094 21.75 10.621094 C 21.453125 10.5 21.195312 10.328125 20.96875 10.101562 C 20.746094 9.878906 20.570312 9.617188 20.449219 9.324219 C 20.328125 9.03125 20.269531 8.722656 20.269531 8.40625 C 20.269531 7.542969 21.5 5.464844 22.667969 3.800781 Z M 22.667969 3.800781 " fill-opacity="1" fill-rule="nonzero"/></g></svg>