<svg xmlns="http://www.w3.org/2000/svg" xmlns:xlink="http://www.w3.org/1999/xlink" width="31" zoomAndPan="magnify" viewBox="0 0 23.25 20.999999" height="28" preserveAspectRatio="xMidYMid meet" version="1.0"><defs><clipPath id="db19abe72a"><path d="M 0 0.328125 L 22.523438 0.328125 L 22.523438 19.945312 L 0 19.945312 Z M 0 0.328125 " clip-rule="nonzero"/></clipPath></defs><g clip-path="url(#db19abe72a)"><path fill="#292929" d="M 11.054688 20.289062 C 10.847656 20.289062 10.640625 20.210938 10.480469 20.050781 L 1.804688 11.375 C 0.664062 10.234375 0.0351562 8.71875 0.0351562 7.105469 C 0.0351562 5.488281 0.664062 3.972656 1.804688 2.832031 C 2.949219 1.691406 4.464844 1.066406 6.074219 1.066406 C 7.683594 1.066406 9.203125 1.695312 10.34375 2.835938 L 11.054688 3.546875 L 11.921875 2.679688 C 14.277344 0.324219 18.109375 0.324219 20.464844 2.679688 C 21.605469 3.816406 22.234375 5.335938 22.234375 6.949219 C 22.234375 8.566406 21.605469 10.082031 20.464844 11.21875 L 13.648438 18.035156 C 13.332031 18.351562 12.816406 18.351562 12.5 18.035156 C 12.179688 17.714844 12.179688 17.199219 12.5 16.882812 L 19.3125 10.070312 C 20.148438 9.238281 20.605469 8.128906 20.605469 6.949219 C 20.605469 5.773438 20.148438 4.664062 19.316406 3.832031 C 17.59375 2.109375 14.796875 2.109375 13.074219 3.832031 L 11.632812 5.273438 C 11.480469 5.425781 11.273438 5.511719 11.058594 5.511719 C 10.84375 5.511719 10.636719 5.425781 10.484375 5.273438 L 9.195312 3.984375 C 8.363281 3.152344 7.253906 2.695312 6.078125 2.695312 C 4.898438 2.695312 3.792969 3.152344 2.957031 3.984375 C 2.121094 4.820312 1.664062 5.925781 1.664062 7.105469 C 1.664062 8.28125 2.121094 9.390625 2.957031 10.222656 L 11.632812 18.902344 C 11.949219 19.21875 11.949219 19.734375 11.632812 20.050781 C 11.472656 20.210938 11.265625 20.289062 11.058594 20.289062 Z M 11.054688 20.289062 " fill-opacity="1" fill-rule="nonzero"/></g><path fill="#292929" d="M 10.53125 7.15625 L 11.730469 7.15625 C 11.957031 7.15625 12.148438 7.234375 12.308594 7.394531 C 12.464844 7.550781 12.546875 7.746094 12.546875 7.96875 L 12.546875 13.230469 C 12.546875 13.453125 12.464844 13.644531 12.308594 13.804688 C 12.148438 13.964844 11.957031 14.042969 11.730469 14.042969 L 10.53125 14.042969 C 10.308594 14.042969 10.117188 13.964844 9.957031 13.804688 C 9.796875 13.644531 9.71875 13.453125 9.71875 13.230469 L 9.71875 7.96875 C 9.71875 7.746094 9.796875 7.550781 9.957031 7.394531 C 10.117188 7.234375 10.308594 7.15625 10.53125 7.15625 Z M 10.53125 7.15625 " fill-opacity="1" fill-rule="nonzero"/><path fill="#292929" d="M 8.503906 9.1875 L 13.761719 9.1875 C 13.988281 9.1875 14.179688 9.265625 14.335938 9.425781 C 14.496094 9.582031 14.578125 9.773438 14.578125 10 L 14.578125 11.199219 C 14.578125 11.421875 14.496094 11.613281 14.335938 11.773438 C 14.179688 11.933594 13.988281 12.011719 13.761719 12.011719 L 8.503906 12.011719 C 8.277344 12.011719 8.085938 11.933594 7.925781 11.773438 C 7.769531 11.613281 7.6875 11.421875 7.6875 11.199219 L 7.6875 10 C 7.6875 9.773438 7.769531 9.582031 7.925781 9.425781 C 8.085938 9.265625 8.277344 9.1875 8.503906 9.1875 Z M 8.503906 9.1875 " fill-opacity="1" fill-rule="nonzero"/></svg>