<svg xmlns="http://www.w3.org/2000/svg" xmlns:xlink="http://www.w3.org/1999/xlink" width="17" zoomAndPan="magnify" viewBox="0 0 12.75 32.249999" height="43" preserveAspectRatio="xMidYMid meet" version="1.0"><defs><clipPath id="a46d242401"><path d="M 0.0234375 0 L 12.484375 0 L 12.484375 31.515625 L 0.0234375 31.515625 Z M 0.0234375 0 " clip-rule="nonzero"/></clipPath></defs><g clip-path="url(#a46d242401)"><path fill="#ffffff" d="M 8.726562 18.109375 C 8.726562 17.019531 8.734375 5.667969 8.726562 4.578125 C 8.710938 3.527344 8.320312 2.679688 7.628906 2.234375 C 6.851562 1.738281 5.683594 1.570312 4.886719 2.113281 C 4.09375 2.65625 3.640625 3.597656 3.632812 4.546875 C 3.621094 6.636719 3.617188 18.984375 3.640625 21.074219 C 3.644531 21.523438 3.53125 21.839844 3.203125 22.148438 C 2.429688 22.878906 2.011719 23.804688 1.953125 24.867188 C 1.796875 27.550781 4.085938 29.664062 6.753906 29.316406 C 9.246094 28.992188 10.90625 26.53125 10.28125 24.09375 C 10.054688 23.199219 9.550781 22.480469 8.886719 21.863281 C 8.769531 21.753906 8.722656 21.636719 8.726562 21.472656 C 8.730469 20.351562 8.726562 19.230469 8.726562 18.109375 Z M 10.402344 17.726562 C 10.402344 18.730469 10.40625 19.738281 10.398438 20.742188 C 10.398438 20.929688 10.445312 21.066406 10.570312 21.207031 C 11.625 22.386719 12.140625 23.773438 12.082031 25.351562 C 11.976562 28.226562 9.847656 30.5625 7 30.980469 C 3.871094 31.4375 0.855469 29.238281 0.359375 26.128906 C 0.0585938 24.273438 0.542969 22.636719 1.773438 21.222656 C 1.910156 21.0625 1.957031 20.914062 1.957031 20.714844 C 1.953125 18.742188 1.9375 6.507812 1.960938 4.535156 C 1.984375 2.453125 3.347656 0.476562 5.484375 0.199219 C 6.832031 0.0195312 8.222656 0.488281 9.199219 1.429688 C 10 2.351562 10.40625 3.417969 10.402344 4.640625 C 10.398438 5.582031 10.402344 16.785156 10.402344 17.726562 " fill-opacity="1" fill-rule="nonzero"/></g><path fill="#ffffff" d="M 7.351562 22.558594 C 7.335938 22.503906 7.332031 22.453125 7.332031 22.402344 C 7.324219 21.472656 7.316406 13.613281 7.316406 13.613281 C 7.316406 12.996094 6.8125 12.496094 6.1875 12.496094 C 5.5625 12.496094 5.054688 12.996094 5.054688 13.613281 C 5.054688 13.613281 5.054688 20.320312 5.0625 22.332031 C 5.0625 22.40625 5.054688 22.476562 5.042969 22.542969 C 4.015625 22.984375 3.292969 24.003906 3.292969 25.195312 C 3.292969 25.464844 3.332031 25.726562 3.402344 25.976562 C 3.742188 27.191406 4.859375 28.082031 6.179688 28.082031 C 7.574219 28.082031 8.738281 27.089844 9.007812 25.777344 C 9.042969 25.589844 9.066406 25.394531 9.066406 25.195312 C 9.066406 24.019531 8.359375 23.007812 7.351562 22.558594 " fill-opacity="1" fill-rule="nonzero"/></svg>