<svg xmlns="http://www.w3.org/2000/svg" xmlns:xlink="http://www.w3.org/1999/xlink" width="42" zoomAndPan="magnify" viewBox="0 0 31.5 26.249999" height="35" preserveAspectRatio="xMidYMid meet" version="1.0"><defs><clipPath id="bb166a02e0"><path d="M 0.195312 0 L 20 0 L 20 10 L 0.195312 10 Z M 0.195312 0 " clip-rule="nonzero"/></clipPath><clipPath id="107184ee16"><path d="M 3 3 L 30.820312 3 L 30.820312 14 L 3 14 Z M 3 3 " clip-rule="nonzero"/></clipPath><clipPath id="24f15fc83e"><path d="M 0.195312 15 L 20 15 L 20 24.792969 L 0.195312 24.792969 Z M 0.195312 15 " clip-rule="nonzero"/></clipPath></defs><g clip-path="url(#bb166a02e0)"><path fill="#ffffff" d="M 15.261719 9.308594 L 0.929688 9.308594 C 0.523438 9.308594 0.195312 8.980469 0.195312 8.574219 C 0.195312 8.164062 0.523438 7.835938 0.929688 7.835938 L 15.261719 7.835938 C 17.011719 7.835938 18.433594 6.414062 18.433594 4.664062 C 18.433594 2.914062 17.011719 1.492188 15.261719 1.492188 C 13.511719 1.492188 12.089844 2.914062 12.089844 4.664062 C 12.089844 5.070312 11.761719 5.402344 11.351562 5.402344 C 10.945312 5.402344 10.617188 5.070312 10.617188 4.664062 C 10.617188 3.421875 11.097656 2.257812 11.976562 1.378906 C 12.855469 0.5 14.019531 0.0195312 15.261719 0.0195312 C 16.503906 0.0195312 17.667969 0.5 18.546875 1.378906 C 19.425781 2.257812 19.90625 3.421875 19.90625 4.664062 C 19.90625 5.90625 19.425781 7.070312 18.546875 7.949219 C 17.667969 8.828125 16.503906 9.308594 15.261719 9.308594 Z M 15.261719 9.308594 " fill-opacity="1" fill-rule="nonzero"/></g><g clip-path="url(#107184ee16)"><path fill="#ffffff" d="M 25.855469 13.21875 L 4.152344 13.21875 C 3.746094 13.21875 3.414062 12.890625 3.414062 12.480469 C 3.414062 12.074219 3.746094 11.742188 4.152344 11.742188 L 25.855469 11.742188 C 27.601562 11.742188 29.027344 10.320312 29.027344 8.574219 C 29.027344 6.824219 27.605469 5.402344 25.855469 5.402344 C 24.105469 5.402344 22.683594 6.824219 22.683594 8.574219 C 22.683594 8.980469 22.355469 9.308594 21.945312 9.308594 C 21.539062 9.308594 21.207031 8.980469 21.207031 8.574219 C 21.207031 7.332031 21.691406 6.164062 22.570312 5.289062 C 23.445312 4.410156 24.613281 3.925781 25.855469 3.925781 C 27.097656 3.925781 28.261719 4.410156 29.140625 5.289062 C 30.019531 6.164062 30.5 7.332031 30.5 8.574219 C 30.5 9.8125 30.019531 10.980469 29.140625 11.859375 C 28.261719 12.734375 27.097656 13.21875 25.855469 13.21875 Z M 25.855469 13.21875 " fill-opacity="1" fill-rule="nonzero"/></g><g clip-path="url(#24f15fc83e)"><path fill="#ffffff" d="M 15.261719 24.945312 C 14.019531 24.945312 12.855469 24.460938 11.976562 23.585938 C 11.097656 22.707031 10.617188 21.539062 10.617188 20.300781 C 10.617188 19.890625 10.945312 19.5625 11.351562 19.5625 C 11.761719 19.5625 12.089844 19.890625 12.089844 20.300781 C 12.089844 22.046875 13.511719 23.46875 15.261719 23.46875 C 17.011719 23.46875 18.433594 22.046875 18.433594 20.300781 C 18.433594 18.550781 17.011719 17.128906 15.261719 17.128906 L 0.929688 17.128906 C 0.523438 17.128906 0.195312 16.796875 0.195312 16.390625 C 0.195312 15.984375 0.523438 15.652344 0.929688 15.652344 L 15.261719 15.652344 C 16.503906 15.652344 17.667969 16.136719 18.546875 17.015625 C 19.425781 17.890625 19.90625 19.058594 19.90625 20.300781 C 19.90625 21.539062 19.425781 22.707031 18.546875 23.585938 C 17.667969 24.460938 16.503906 24.945312 15.261719 24.945312 Z M 15.261719 24.945312 " fill-opacity="1" fill-rule="nonzero"/></g></svg>